# xmcd
#
# Track frame offsets: 
#        182
#        11962
#        29195
#        44195
#        54777
#        68022
#        86840
#        104827
#        115720
#        130577
#        153080
#        164015
#        179045
#        194502
#        208437
#        217367
#        231265
#
# Disc length: 3264 seconds
#
# Revision: 0
# Processed by: cddbd v1.5.2PL0 Copyright (c) Steve Scherf et al.
# Submitted via: ExactAudioCopy v0.99pb3
#
DISCID=110cbe11
DTITLE=Guaco - Guaco Clasico II
DYEAR=1993
DGENRE=Guaco
TTITLE0=Carretera Machiques a Colón
TTITLE1=Los Patinadores
TTITLE2=Remembranzas II
TTITLE3=Virgencita Santa
TTITLE4=En estas Pascuas, Mi vida
TTITLE5=Guayana Esequiba
TTITLE6=Aniceto Rondón
TTITLE7=Flor de la Habana I y II
TTITLE8=Noche Buena
TTITLE9=Grey Zuliana
TTITLE10=La Mujer Maracaibera
TTITLE11=Tamborero
TTITLE12=Gloria de un Parrandón
TTITLE13=Remembranzas
TTITLE14=Gaitoneando
TTITLE15=Gaita Sandunguera
TTITLE16=Decreto Papal
EXTD=
EXTT0=
EXTT1=
EXTT2=
EXTT3=
EXTT4=
EXTT5=
EXTT6=
EXTT7=
EXTT8=
EXTT9=
EXTT10=
EXTT11=
EXTT12=
EXTT13=
EXTT14=
EXTT15=
EXTT16=
PLAYORDER=
